<svg xmlns="http://www.w3.org/2000/svg" viewBox="0 0 25 25"><defs><style>.cls-1{fill:#231f20;}</style></defs><g id="graph-pie"><path class="cls-1" d="M12,13.27V4.5a.5.5,0,0,0-.5-.5,9.5,9.5,0,1,0,7.28,15.61.53.53,0,0,0,.11-.37.48.48,0,0,0-.18-.34ZM11.5,22A8.5,8.5,0,0,1,11,5V13.5a.49.49,0,0,0,.18.38l6.5,5.46A8.49,8.49,0,0,1,11.5,22Z"/><path class="cls-1" d="M13.19,11.78a.53.53,0,0,0,.23-.06l7-3.66a.5.5,0,0,0,.25-.3.55.55,0,0,0-.05-.4A11.46,11.46,0,0,0,13.33,2a.52.52,0,0,0-.42.1.49.49,0,0,0-.19.39l0,8.77a.49.49,0,0,0,.23.43A.5.5,0,0,0,13.19,11.78Zm.53-8.64A10.45,10.45,0,0,1,19.5,7.43l-5.81,3Z"/><path class="cls-1" d="M21.45,8.89a.48.48,0,0,0-.62-.15L13,12.6a.48.48,0,0,0-.28.39.51.51,0,0,0,.18.45l6.78,5.41A.5.5,0,0,0,20,19a.49.49,0,0,0,.3-.1,6.94,6.94,0,0,0,2.42-3.35A7.57,7.57,0,0,0,21.45,8.89Zm.27,6.31a5.87,5.87,0,0,1-1.78,2.62l-5.85-4.67,6.79-3.32A6.51,6.51,0,0,1,21.72,15.2Z"/></g></svg>