<svg width="24" height="24" viewBox="0 0 24 24" fill="none" xmlns="http://www.w3.org/2000/svg"><path opacity="0.8" d="M20.4714 3.52874C18.0239 1.08418 14.5554 -0.325558 10.7415 0.0643711C5.23084 0.61927 0.696207 5.08845 0.0805781 10.5924C-0.745265 17.8661 4.88548 24 11.9877 24C16.7776 24 20.8918 21.1955 22.8138 17.1612C23.2943 16.1564 22.5735 15.0016 21.4624 15.0016C20.9068 15.0016 20.3813 15.3016 20.1411 15.7965C18.4443 19.4408 14.3752 21.7504 9.93064 20.7606C6.59723 20.0257 3.90949 17.3112 3.20377 13.9818C1.94248 8.16289 6.372 3.00383 11.9877 3.00383C14.4803 3.00383 16.7025 4.03865 18.3242 5.67335L16.0569 7.93793C15.1109 8.88276 15.7716 10.5025 17.108 10.5025H22.4985C23.3243 10.5025 24 9.82759 24 9.00274V3.61872C24 2.28397 22.3783 1.60909 21.4324 2.55392L20.4714 3.52874Z" fill="white"/></svg>